<mxfile host="app.diagrams.net" modified="2023-11-06T14:16:37.708Z" agent="Mozilla/5.0 (Windows NT 10.0; Win64; x64) AppleWebKit/537.36 (KHTML, like Gecko) Chrome/118.0.0.0 Safari/537.36" etag="4J32DZ_QQM0rokVJZF0w" version="22.0.0" type="device">
  <diagram name="Page-1" id="rBXrR9XX1wY5mTaTnMgQ">
    <mxGraphModel dx="1050" dy="534" grid="1" gridSize="10" guides="1" tooltips="1" connect="1" arrows="1" fold="1" page="1" pageScale="1" pageWidth="827" pageHeight="1169" math="0" shadow="0">
      <root>
        <mxCell id="0" />
        <mxCell id="1" parent="0" />
        <mxCell id="9zMLQqoUOnXtZ-0Z76E8-66" style="edgeStyle=orthogonalEdgeStyle;rounded=0;orthogonalLoop=1;jettySize=auto;html=1;exitX=0.5;exitY=1;exitDx=0;exitDy=0;" edge="1" parent="1" source="9zMLQqoUOnXtZ-0Z76E8-64">
          <mxGeometry relative="1" as="geometry">
            <mxPoint x="355" y="490" as="targetPoint" />
          </mxGeometry>
        </mxCell>
        <mxCell id="9zMLQqoUOnXtZ-0Z76E8-64" value="AZ SUB" style="rounded=0;whiteSpace=wrap;html=1;verticalAlign=top;" vertex="1" parent="1">
          <mxGeometry x="100" width="510" height="460" as="geometry" />
        </mxCell>
        <mxCell id="9zMLQqoUOnXtZ-0Z76E8-60" style="edgeStyle=orthogonalEdgeStyle;rounded=0;orthogonalLoop=1;jettySize=auto;html=1;" edge="1" parent="1" source="9zMLQqoUOnXtZ-0Z76E8-61">
          <mxGeometry relative="1" as="geometry">
            <mxPoint x="850" y="558" as="targetPoint" />
          </mxGeometry>
        </mxCell>
        <mxCell id="9zMLQqoUOnXtZ-0Z76E8-58" value="Monitoring / Logging SUB" style="rounded=0;whiteSpace=wrap;html=1;verticalAlign=top;" vertex="1" parent="1">
          <mxGeometry x="100" y="485" width="510" height="218" as="geometry" />
        </mxCell>
        <mxCell id="9zMLQqoUOnXtZ-0Z76E8-51" value="" style="outlineConnect=0;dashed=0;verticalLabelPosition=bottom;verticalAlign=top;align=left;html=1;shape=mxgraph.aws3.cache_node;fillColor=#2E73B8;gradientColor=none;" vertex="1" parent="1">
          <mxGeometry x="304.5" y="48" width="60" height="63" as="geometry" />
        </mxCell>
        <mxCell id="9zMLQqoUOnXtZ-0Z76E8-31" value="Payment Gateway" style="rounded=0;whiteSpace=wrap;html=1;verticalAlign=top;" vertex="1" parent="1">
          <mxGeometry x="680" y="276" width="156" height="160" as="geometry" />
        </mxCell>
        <mxCell id="9zMLQqoUOnXtZ-0Z76E8-65" style="edgeStyle=orthogonalEdgeStyle;rounded=0;orthogonalLoop=1;jettySize=auto;html=1;" edge="1" parent="1" source="9zMLQqoUOnXtZ-0Z76E8-1" target="9zMLQqoUOnXtZ-0Z76E8-2">
          <mxGeometry relative="1" as="geometry" />
        </mxCell>
        <mxCell id="9zMLQqoUOnXtZ-0Z76E8-1" value="BUYER" style="image;aspect=fixed;perimeter=ellipsePerimeter;html=1;align=center;shadow=0;dashed=0;spacingTop=3;image=img/lib/active_directory/user.svg;" vertex="1" parent="1">
          <mxGeometry x="30.75" y="270" width="28.5" height="77.03" as="geometry" />
        </mxCell>
        <mxCell id="9zMLQqoUOnXtZ-0Z76E8-46" style="edgeStyle=orthogonalEdgeStyle;rounded=0;orthogonalLoop=1;jettySize=auto;html=1;entryX=0;entryY=0.5;entryDx=0;entryDy=0;" edge="1" parent="1" source="9zMLQqoUOnXtZ-0Z76E8-2" target="9zMLQqoUOnXtZ-0Z76E8-45">
          <mxGeometry relative="1" as="geometry" />
        </mxCell>
        <mxCell id="9zMLQqoUOnXtZ-0Z76E8-2" value="MERCHANT" style="image;html=1;image=img/lib/clip_art/finance/Shopping_Cart_128x128.png" vertex="1" parent="1">
          <mxGeometry x="20" y="87.5" width="50" height="75" as="geometry" />
        </mxCell>
        <mxCell id="9zMLQqoUOnXtZ-0Z76E8-43" style="edgeStyle=orthogonalEdgeStyle;rounded=0;orthogonalLoop=1;jettySize=auto;html=1;exitX=0.5;exitY=1;exitDx=0;exitDy=0;" edge="1" parent="1" source="9zMLQqoUOnXtZ-0Z76E8-6" target="9zMLQqoUOnXtZ-0Z76E8-13">
          <mxGeometry relative="1" as="geometry" />
        </mxCell>
        <mxCell id="9zMLQqoUOnXtZ-0Z76E8-44" value="Peer" style="edgeLabel;html=1;align=center;verticalAlign=middle;resizable=0;points=[];" vertex="1" connectable="0" parent="9zMLQqoUOnXtZ-0Z76E8-43">
          <mxGeometry x="-0.2171" y="-1" relative="1" as="geometry">
            <mxPoint as="offset" />
          </mxGeometry>
        </mxCell>
        <mxCell id="9zMLQqoUOnXtZ-0Z76E8-69" value="2 way" style="edgeLabel;html=1;align=center;verticalAlign=middle;resizable=0;points=[];" vertex="1" connectable="0" parent="9zMLQqoUOnXtZ-0Z76E8-43">
          <mxGeometry x="-0.52" y="2" relative="1" as="geometry">
            <mxPoint as="offset" />
          </mxGeometry>
        </mxCell>
        <mxCell id="9zMLQqoUOnXtZ-0Z76E8-6" value="Frontend Avail Set / Cluster" style="rounded=0;whiteSpace=wrap;html=1;verticalAlign=top;" vertex="1" parent="1">
          <mxGeometry x="400" y="50" width="160" height="150" as="geometry" />
        </mxCell>
        <mxCell id="9zMLQqoUOnXtZ-0Z76E8-41" style="edgeStyle=orthogonalEdgeStyle;rounded=0;orthogonalLoop=1;jettySize=auto;html=1;exitX=1;exitY=0.5;exitDx=0;exitDy=0;" edge="1" parent="1" source="9zMLQqoUOnXtZ-0Z76E8-3">
          <mxGeometry relative="1" as="geometry">
            <mxPoint x="670" y="350" as="targetPoint" />
          </mxGeometry>
        </mxCell>
        <mxCell id="9zMLQqoUOnXtZ-0Z76E8-3" value="WAF" style="image;html=1;image=img/lib/clip_art/networking/Firewall_02_128x128.png" vertex="1" parent="1">
          <mxGeometry x="580" y="312" width="70" height="75" as="geometry" />
        </mxCell>
        <mxCell id="9zMLQqoUOnXtZ-0Z76E8-50" style="edgeStyle=orthogonalEdgeStyle;rounded=0;orthogonalLoop=1;jettySize=auto;html=1;exitX=1;exitY=0.5;exitDx=0;exitDy=0;exitPerimeter=0;" edge="1" parent="1" source="9zMLQqoUOnXtZ-0Z76E8-5">
          <mxGeometry relative="1" as="geometry">
            <mxPoint x="390" y="125" as="targetPoint" />
          </mxGeometry>
        </mxCell>
        <mxCell id="9zMLQqoUOnXtZ-0Z76E8-68" value="" style="edgeStyle=orthogonalEdgeStyle;rounded=0;orthogonalLoop=1;jettySize=auto;html=1;" edge="1" parent="1" source="9zMLQqoUOnXtZ-0Z76E8-5" target="9zMLQqoUOnXtZ-0Z76E8-67">
          <mxGeometry relative="1" as="geometry" />
        </mxCell>
        <mxCell id="9zMLQqoUOnXtZ-0Z76E8-5" value="BALANCER" style="outlineConnect=0;dashed=0;verticalLabelPosition=bottom;verticalAlign=top;align=center;html=1;shape=mxgraph.aws3.classic_load_balancer;fillColor=#F58534;gradientColor=none;" vertex="1" parent="1">
          <mxGeometry x="300" y="89" width="69" height="71" as="geometry" />
        </mxCell>
        <mxCell id="9zMLQqoUOnXtZ-0Z76E8-12" value="" style="sketch=0;aspect=fixed;pointerEvents=1;shadow=0;dashed=0;html=1;strokeColor=none;labelPosition=center;verticalLabelPosition=bottom;verticalAlign=top;align=center;fillColor=#00188D;shape=mxgraph.mscae.enterprise.cluster_server" vertex="1" parent="1">
          <mxGeometry x="450" y="111" width="50" height="62.5" as="geometry" />
        </mxCell>
        <mxCell id="9zMLQqoUOnXtZ-0Z76E8-22" style="edgeStyle=orthogonalEdgeStyle;rounded=0;orthogonalLoop=1;jettySize=auto;html=1;entryX=1;entryY=0.5;entryDx=0;entryDy=0;" edge="1" parent="1" source="9zMLQqoUOnXtZ-0Z76E8-13" target="9zMLQqoUOnXtZ-0Z76E8-15">
          <mxGeometry relative="1" as="geometry" />
        </mxCell>
        <mxCell id="9zMLQqoUOnXtZ-0Z76E8-23" value="1433" style="edgeLabel;html=1;align=center;verticalAlign=middle;resizable=0;points=[];" vertex="1" connectable="0" parent="9zMLQqoUOnXtZ-0Z76E8-22">
          <mxGeometry x="0.1227" y="-2" relative="1" as="geometry">
            <mxPoint as="offset" />
          </mxGeometry>
        </mxCell>
        <mxCell id="9zMLQqoUOnXtZ-0Z76E8-24" value="Peer" style="edgeLabel;html=1;align=center;verticalAlign=middle;resizable=0;points=[];" vertex="1" connectable="0" parent="9zMLQqoUOnXtZ-0Z76E8-22">
          <mxGeometry x="-0.3479" y="-1" relative="1" as="geometry">
            <mxPoint as="offset" />
          </mxGeometry>
        </mxCell>
        <mxCell id="9zMLQqoUOnXtZ-0Z76E8-35" value="" style="edgeStyle=orthogonalEdgeStyle;rounded=0;orthogonalLoop=1;jettySize=auto;html=1;" edge="1" parent="1" source="9zMLQqoUOnXtZ-0Z76E8-13" target="9zMLQqoUOnXtZ-0Z76E8-3">
          <mxGeometry relative="1" as="geometry" />
        </mxCell>
        <mxCell id="9zMLQqoUOnXtZ-0Z76E8-13" value="Application / AKS" style="rounded=0;whiteSpace=wrap;html=1;verticalAlign=top;" vertex="1" parent="1">
          <mxGeometry x="405" y="270" width="150" height="160" as="geometry" />
        </mxCell>
        <mxCell id="9zMLQqoUOnXtZ-0Z76E8-14" value="" style="sketch=0;aspect=fixed;pointerEvents=1;shadow=0;dashed=0;html=1;strokeColor=none;labelPosition=center;verticalLabelPosition=bottom;verticalAlign=top;align=center;fillColor=#00188D;shape=mxgraph.mscae.enterprise.cluster_server" vertex="1" parent="1">
          <mxGeometry x="460" y="331" width="40" height="50" as="geometry" />
        </mxCell>
        <mxCell id="9zMLQqoUOnXtZ-0Z76E8-15" value="Backend DB Cluster&lt;br&gt;" style="rounded=0;whiteSpace=wrap;html=1;verticalAlign=top;" vertex="1" parent="1">
          <mxGeometry x="121" y="270" width="160" height="160" as="geometry" />
        </mxCell>
        <mxCell id="9zMLQqoUOnXtZ-0Z76E8-16" value="" style="sketch=0;aspect=fixed;pointerEvents=1;shadow=0;dashed=0;html=1;strokeColor=none;labelPosition=center;verticalLabelPosition=bottom;verticalAlign=top;align=center;fillColor=#00188D;shape=mxgraph.mscae.enterprise.cluster_server" vertex="1" parent="1">
          <mxGeometry x="170" y="331" width="40" height="50" as="geometry" />
        </mxCell>
        <mxCell id="9zMLQqoUOnXtZ-0Z76E8-27" value="App Insights / Log Analytics" style="rounded=0;whiteSpace=wrap;html=1;verticalAlign=top;" vertex="1" parent="1">
          <mxGeometry x="121" y="535" width="160" height="40" as="geometry" />
        </mxCell>
        <mxCell id="9zMLQqoUOnXtZ-0Z76E8-28" value="Monitoring/ Alerting (Grafana / Pager Duty)&amp;nbsp;" style="rounded=0;whiteSpace=wrap;html=1;verticalAlign=top;" vertex="1" parent="1">
          <mxGeometry x="121" y="595" width="160" height="40" as="geometry" />
        </mxCell>
        <mxCell id="9zMLQqoUOnXtZ-0Z76E8-29" value="Metrics / Azure Monitor / Messages" style="rounded=0;whiteSpace=wrap;html=1;verticalAlign=top;" vertex="1" parent="1">
          <mxGeometry x="400" y="535" width="160" height="40" as="geometry" />
        </mxCell>
        <mxCell id="9zMLQqoUOnXtZ-0Z76E8-30" value="" style="image;points=[];aspect=fixed;html=1;align=center;shadow=0;dashed=0;image=img/lib/allied_telesis/buildings/Building_Cluster.svg;" vertex="1" parent="1">
          <mxGeometry x="698" y="308" width="121.2" height="111" as="geometry" />
        </mxCell>
        <mxCell id="9zMLQqoUOnXtZ-0Z76E8-45" value="WAF" style="image;html=1;image=img/lib/clip_art/networking/Firewall_02_128x128.png" vertex="1" parent="1">
          <mxGeometry x="180" y="87" width="70" height="75" as="geometry" />
        </mxCell>
        <mxCell id="9zMLQqoUOnXtZ-0Z76E8-47" style="edgeStyle=orthogonalEdgeStyle;rounded=0;orthogonalLoop=1;jettySize=auto;html=1;exitX=1;exitY=0.5;exitDx=0;exitDy=0;entryX=0;entryY=0.5;entryDx=0;entryDy=0;entryPerimeter=0;" edge="1" parent="1" source="9zMLQqoUOnXtZ-0Z76E8-45" target="9zMLQqoUOnXtZ-0Z76E8-5">
          <mxGeometry relative="1" as="geometry" />
        </mxCell>
        <mxCell id="9zMLQqoUOnXtZ-0Z76E8-56" value="Fraud Detection" style="rounded=0;whiteSpace=wrap;html=1;verticalAlign=top;" vertex="1" parent="1">
          <mxGeometry x="860" y="485" width="156" height="160" as="geometry" />
        </mxCell>
        <mxCell id="9zMLQqoUOnXtZ-0Z76E8-57" value="" style="image;points=[];aspect=fixed;html=1;align=center;shadow=0;dashed=0;image=img/lib/allied_telesis/buildings/Building_Cluster.svg;" vertex="1" parent="1">
          <mxGeometry x="890" y="524.5" width="121.2" height="111" as="geometry" />
        </mxCell>
        <mxCell id="9zMLQqoUOnXtZ-0Z76E8-59" value="TF State" style="rounded=0;whiteSpace=wrap;html=1;verticalAlign=top;" vertex="1" parent="1">
          <mxGeometry x="400" y="595" width="160" height="40" as="geometry" />
        </mxCell>
        <mxCell id="9zMLQqoUOnXtZ-0Z76E8-62" value="" style="edgeStyle=orthogonalEdgeStyle;rounded=0;orthogonalLoop=1;jettySize=auto;html=1;exitX=1;exitY=0.5;exitDx=0;exitDy=0;" edge="1" parent="1" source="9zMLQqoUOnXtZ-0Z76E8-29">
          <mxGeometry relative="1" as="geometry">
            <mxPoint x="690" y="555" as="targetPoint" />
            <mxPoint x="610" y="601" as="sourcePoint" />
          </mxGeometry>
        </mxCell>
        <mxCell id="9zMLQqoUOnXtZ-0Z76E8-61" value="WAF" style="image;html=1;image=img/lib/clip_art/networking/Firewall_02_128x128.png" vertex="1" parent="1">
          <mxGeometry x="690" y="521" width="70" height="75" as="geometry" />
        </mxCell>
        <mxCell id="9zMLQqoUOnXtZ-0Z76E8-67" value="" style="outlineConnect=0;dashed=0;verticalLabelPosition=bottom;verticalAlign=top;align=center;html=1;shape=mxgraph.aws3.certificate;fillColor=#5294CF;gradientColor=none;" vertex="1" parent="1">
          <mxGeometry x="302" y="191" width="63" height="85.5" as="geometry" />
        </mxCell>
        <mxCell id="9zMLQqoUOnXtZ-0Z76E8-70" value="" style="outlineConnect=0;dashed=0;verticalLabelPosition=bottom;verticalAlign=top;align=left;html=1;shape=mxgraph.aws3.cache_node;fillColor=#2E73B8;gradientColor=none;" vertex="1" parent="1">
          <mxGeometry x="250" y="381" width="60" height="63" as="geometry" />
        </mxCell>
      </root>
    </mxGraphModel>
  </diagram>
</mxfile>
